<svg xmlns="http://www.w3.org/2000/svg" version="1.1" xmlns:xlink="http://www.w3.org/1999/xlink" xmlns:svgjs="http://svgjs.dev/svgjs" width="128" height="128" viewBox="0 0 128 128"><g transform="matrix(0.8046875,0,0,0.8046875,12.5,12.5)"><svg viewBox="0 0 200 200" data-background-color="#ffffff" preserveAspectRatio="xMidYMid meet" height="128" width="128" xmlns="http://www.w3.org/2000/svg" xmlns:xlink="http://www.w3.org/1999/xlink"><g id="tight-bounds" transform="matrix(1,0,0,1,0,0)"><svg viewBox="0 0 200 200" height="200" width="200"><rect width="200" height="200" fill="url(#d1a13c00-c2a7-4b07-a16d-d0ba9310333b)" mask="url(&quot;#fd1809d7-5864-4448-aaf1-af6c7286596e&quot;)" data-fill-palette-color="tertiary"></rect><g><svg></svg></g><g><svg viewBox="0 0 200 200" height="200" width="200"><g><path d="M0 100c0-55.228 44.772-100 100-100 55.228 0 100 44.772 100 100 0 55.228-44.772 100-100 100-55.228 0-100-44.772-100-100z" fill="url(#d1a13c00-c2a7-4b07-a16d-d0ba9310333b)" fill-rule="nonzero" stroke="none" stroke-width="1" stroke-linecap="butt" stroke-linejoin="miter" stroke-miterlimit="10" stroke-dasharray="" stroke-dashoffset="0" font-family="none" font-weight="none" font-size="none" text-anchor="none" style="mix-blend-mode: normal" data-fill-palette-color="tertiary"></path></g><g transform="matrix(1,0,0,1,75.64248927038626,69.1)"><svg viewBox="0 0 48.715021459227465 61.8" height="61.8" width="48.715021459227465"><g><svg viewBox="0 0 48.715021459227465 61.8" height="61.8" width="48.715021459227465"><g><svg viewBox="0 0 48.715021459227465 61.8" height="61.8" width="48.715021459227465"><g id="textblocktransform"><svg viewBox="0 0 48.715021459227465 61.8" height="61.8" width="48.715021459227465" id="textblock"><g><svg viewBox="0 0 48.715021459227465 61.8" height="61.8" width="48.715021459227465"><g transform="matrix(1,0,0,1,0,0)"><svg width="48.715021459227465" viewBox="0 -34.95 27.55 34.95" height="61.8" data-palette-color="#ffffff"><path d="M17.85-2.15L27.55-2.15 27.55 0 0 0 0-2.15 5.5-2.15Q3.3-3.15 1.55-5L1.55-5 4.9-9.65Q8.3-6.4 11.55-6.4L11.55-6.4Q13.85-6.4 15.48-7.95 17.1-9.5 17.1-12.6L17.1-12.6 17.1-29.65 6-29.65 6-34.95 23-34.95 23-12.9Q23-5.1 17.85-2.15L17.85-2.15Z" opacity="1" transform="matrix(1,0,0,1,0,0)" fill="#ffffff" class="undefined-text-0" data-fill-palette-color="quaternary" id="text-0"></path></svg></g></svg></g></svg></g></svg></g><g></g></svg></g></svg></g></svg></g><defs></defs><mask id="fd1809d7-5864-4448-aaf1-af6c7286596e"><g id="SvgjsG1003"><svg viewBox="0 0 200 200" height="200" width="200"><g><svg></svg></g><g><svg viewBox="0 0 200 200" height="200" width="200"><g><path d="M0 100c0-55.228 44.772-100 100-100 55.228 0 100 44.772 100 100 0 55.228-44.772 100-100 100-55.228 0-100-44.772-100-100z" fill="white" fill-rule="nonzero" stroke="none" stroke-width="1" stroke-linecap="butt" stroke-linejoin="miter" stroke-miterlimit="10" stroke-dasharray="" stroke-dashoffset="0" font-family="none" font-weight="none" font-size="none" text-anchor="none" style="mix-blend-mode: normal"></path></g><g transform="matrix(1,0,0,1,75.64248927038626,69.1)"><svg viewBox="0 0 48.715021459227465 61.8" height="61.8" width="48.715021459227465"><g><svg viewBox="0 0 48.715021459227465 61.8" height="61.8" width="48.715021459227465"><g><svg viewBox="0 0 48.715021459227465 61.8" height="61.8" width="48.715021459227465"><g id="SvgjsG1002"><svg viewBox="0 0 48.715021459227465 61.8" height="61.8" width="48.715021459227465" id="SvgjsSvg1001"><g><svg viewBox="0 0 48.715021459227465 61.8" height="61.8" width="48.715021459227465"><g transform="matrix(1,0,0,1,0,0)"><svg width="48.715021459227465" viewBox="0 -34.95 27.55 34.95" height="61.8" data-palette-color="#ffffff"></svg></g></svg></g></svg></g></svg></g><g></g></svg></g></svg></g></svg></g><defs><mask></mask></defs></svg></g></mask><linearGradient x1="0" x2="1" y1="0.578" y2="0.595" id="d1a13c00-c2a7-4b07-a16d-d0ba9310333b"><stop stop-color="#6ee2f5" offset="0"></stop><stop stop-color="#6454f0" offset="1"></stop></linearGradient></svg><rect width="200" height="200" fill="none" stroke="none" visibility="hidden"></rect></g></svg></g></svg>